<svg viewBox="0 0 402 874" xmlns="http://www.w3.org/2000/svg">
  <rect width="402" height="874" fill="#0f0f0d"/>
  <text x="201" y="120" text-anchor="middle" fill="#a3a097" font-family="system-ui" font-size="14" font-weight="600">2:34</text>
  <!-- Waveform bars -->
  <g transform="translate(40,340)">
    <rect x="0" y="-30" width="4" height="60" rx="2" fill="#f4f2ec" opacity="0.6"/>
    <rect x="10" y="-50" width="4" height="100" rx="2" fill="#f4f2ec" opacity="0.7"/>
    <rect x="20" y="-20" width="4" height="40" rx="2" fill="#f4f2ec" opacity="0.5"/>
    <rect x="30" y="-60" width="4" height="120" rx="2" fill="#f4f2ec" opacity="0.8"/>
    <rect x="40" y="-35" width="4" height="70" rx="2" fill="#f4f2ec" opacity="0.6"/>
    <rect x="50" y="-45" width="4" height="90" rx="2" fill="#f4f2ec" opacity="0.7"/>
    <rect x="60" y="-25" width="4" height="50" rx="2" fill="#f4f2ec" opacity="0.5"/>
    <rect x="70" y="-55" width="4" height="110" rx="2" fill="#f4f2ec" opacity="0.8"/>
    <rect x="80" y="-40" width="4" height="80" rx="2" fill="#f4f2ec" opacity="0.6"/>
    <rect x="90" y="-30" width="4" height="60" rx="2" fill="#f4f2ec" opacity="0.5"/>
    <rect x="100" y="-65" width="4" height="130" rx="2" fill="#f4f2ec" opacity="0.9"/>
    <rect x="110" y="-20" width="4" height="40" rx="2" fill="#f4f2ec" opacity="0.4"/>
    <rect x="120" y="-50" width="4" height="100" rx="2" fill="#f4f2ec" opacity="0.7"/>
    <rect x="130" y="-35" width="4" height="70" rx="2" fill="#f4f2ec" opacity="0.6"/>
    <rect x="140" y="-55" width="4" height="110" rx="2" fill="#f4f2ec" opacity="0.8"/>
    <rect x="150" y="-25" width="4" height="50" rx="2" fill="#f4f2ec" opacity="0.5"/>
    <rect x="160" y="-45" width="4" height="90" rx="2" fill="#f4f2ec" opacity="0.7"/>
    <rect x="170" y="-60" width="4" height="120" rx="2" fill="#f4f2ec" opacity="0.8"/>
    <rect x="180" y="-30" width="4" height="60" rx="2" fill="#f4f2ec" opacity="0.5"/>
    <rect x="190" y="-50" width="4" height="100" rx="2" fill="#f4f2ec" opacity="0.7"/>
    <rect x="200" y="-40" width="4" height="80" rx="2" fill="#f4f2ec" opacity="0.6"/>
    <rect x="210" y="-55" width="4" height="110" rx="2" fill="#f4f2ec" opacity="0.8"/>
    <rect x="220" y="-25" width="4" height="50" rx="2" fill="#f4f2ec" opacity="0.5"/>
    <rect x="230" y="-65" width="4" height="130" rx="2" fill="#f4f2ec" opacity="0.9"/>
    <rect x="240" y="-35" width="4" height="70" rx="2" fill="#f4f2ec" opacity="0.6"/>
    <rect x="250" y="-20" width="4" height="40" rx="2" fill="#f4f2ec" opacity="0.4"/>
    <rect x="260" y="-50" width="4" height="100" rx="2" fill="#f4f2ec" opacity="0.7"/>
    <rect x="270" y="-45" width="4" height="90" rx="2" fill="#f4f2ec" opacity="0.7"/>
    <rect x="280" y="-30" width="4" height="60" rx="2" fill="#f4f2ec" opacity="0.5"/>
  </g>
  <!-- Record button -->
  <circle cx="201" cy="720" r="44" fill="#c44536"/>
  <rect x="189" y="708" width="24" height="24" rx="4" fill="#fff"/>
  <text x="201" y="800" text-anchor="middle" fill="#6d6b62" font-family="system-ui" font-size="13">Recording</text>
</svg>
